<?xml version="1.0" standalone="no"?><svg xmlns="http://www.w3.org/2000/svg" viewBox="0 0 1440 320"><path fill="#F89536" fill-opacity="1" d="M0,64L14.1,90.7C28.2,117,56,171,85,197.3C112.9,224,141,224,169,229.3C197.6,235,226,245,254,256C282.4,267,311,277,339,277.3C367.1,277,395,267,424,234.7C451.8,203,480,149,508,160C536.5,171,565,245,593,240C621.2,235,649,149,678,117.3C705.9,85,734,107,762,112C790.6,117,819,107,847,117.3C875.3,128,904,160,932,186.7C960,213,988,235,1016,234.7C1044.7,235,1073,213,1101,202.7C1129.4,192,1158,192,1186,181.3C1214.1,171,1242,149,1271,170.7C1298.8,192,1327,256,1355,277.3C1383.5,299,1412,277,1426,266.7L1440,256L1440,320L1425.9,320C1411.8,320,1384,320,1355,320C1327.1,320,1299,320,1271,320C1242.4,320,1214,320,1186,320C1157.6,320,1129,320,1101,320C1072.9,320,1045,320,1016,320C988.2,320,960,320,932,320C903.5,320,875,320,847,320C818.8,320,791,320,762,320C734.1,320,706,320,678,320C649.4,320,621,320,593,320C564.7,320,536,320,508,320C480,320,452,320,424,320C395.3,320,367,320,339,320C310.6,320,282,320,254,320C225.9,320,198,320,169,320C141.2,320,113,320,85,320C56.5,320,28,320,14,320L0,320Z"></path></svg>